<svg xmlns:xlink="http://www.w3.org/1999/xlink" xmlns="http://www.w3.org/2000/svg" contentStyleType="text/css"
     data-diagram-type="SEQUENCE" height="886px" preserveAspectRatio="none"
     style="width:431px;height:886px;background:#FFFFFF;" version="1.1" viewBox="0 0 431 886" width="431px"
     zoomAndPan="magnify">
    <defs/>
    <g>
        <g>
            <title>Client</title>
            <rect fill="#FFFFFF" height="114.3984" style="stroke:#181818;stroke-width:1;" width="10" x="23.2651"
                  y="184.6953"/>
        </g>
        <g>
            <title>Client</title>
            <rect fill="#FFFFFF" height="72.2656" style="stroke:#181818;stroke-width:1;" width="10" x="23.2651"
                  y="535.0234"/>
        </g>
        <g>
            <title>Client</title>
            <rect fill="#FFFFFF" height="30" style="stroke:#181818;stroke-width:1;" width="10" x="23.2651"
                  y="757.9531"/>
        </g>
        <g>
            <title>Server</title>
            <rect fill="#FFFFFF" height="632.3906" style="stroke:#181818;stroke-width:1;" width="10" x="178.7783"
                  y="155.5625"/>
        </g>
        <g>
            <title>Server</title>
            <rect fill="#FFFFFF" height="343.3281" style="stroke:#181818;stroke-width:1;" width="10" x="183.7783"
                  y="299.0938"/>
        </g>
        <g>
            <title>DataSource</title>
            <rect fill="#FFFFFF" height="696.6563" style="stroke:#181818;stroke-width:1;" width="10" x="370.2915"
                  y="91.2969"/>
        </g>
        <g>
            <title>Client</title>
            <rect fill="#000000" fill-opacity="0.00000" height="724.6563" width="8" x="24.2651" y="81.2969"/>
            <line style="stroke:#181818;stroke-width:0.5;stroke-dasharray:5.0,5.0;" x1="28" x2="28" y1="81.2969"
                  y2="805.9531"/>
        </g>
        <g>
            <title>Server</title>
            <rect fill="#000000" fill-opacity="0.00000" height="724.6563" width="8" x="179.7783" y="81.2969"/>
            <line style="stroke:#181818;stroke-width:0.5;stroke-dasharray:5.0,5.0;" x1="182.8232" x2="182.8232"
                  y1="81.2969" y2="805.9531"/>
        </g>
        <g>
            <title>DataSource</title>
            <rect fill="#000000" fill-opacity="0.00000" height="724.6563" width="8" x="371.2915" y="81.2969"/>
            <line style="stroke:#181818;stroke-width:0.5;stroke-dasharray:5.0,5.0;" x1="374.3818" x2="374.3818"
                  y1="81.2969" y2="805.9531"/>
        </g>
        <g class="participant participant-head" data-participant="Client">
            <text fill="#000000" font-family="sans-serif" font-size="14" lengthAdjust="spacing" textLength="40.5303"
                  x="5" y="77.9951">Client
            </text>
            <ellipse cx="28.2651" cy="13.5" fill="#E2E2F0" rx="8" ry="8" style="stroke:#181818;stroke-width:0.5;"/>
            <path d="M28.2651,21.5 L28.2651,48.5 M15.2651,29.5 L41.2651,29.5 M28.2651,48.5 L15.2651,63.5 M28.2651,48.5 L41.2651,63.5"
                  fill="none" style="stroke:#181818;stroke-width:0.5;"/>
        </g>
        <g class="participant participant-tail" data-participant="Client">
            <text fill="#000000" font-family="sans-serif" font-size="14" lengthAdjust="spacing" textLength="40.5303"
                  x="5" y="817.9482">Client
            </text>
            <ellipse cx="28.2651" cy="829.75" fill="#E2E2F0" rx="8" ry="8" style="stroke:#181818;stroke-width:0.5;"/>
            <path d="M28.2651,837.75 L28.2651,864.75 M15.2651,845.75 L41.2651,845.75 M28.2651,864.75 L15.2651,879.75 M28.2651,864.75 L41.2651,879.75"
                  fill="none" style="stroke:#181818;stroke-width:0.5;"/>
        </g>
        <g class="participant participant-head" data-participant="Server">
            <rect fill="#E2E2F0" height="30.2969" rx="2.5" ry="2.5" style="stroke:#181818;stroke-width:0.5;"
                  width="59.9102" x="153.8232" y="50"/>
            <text fill="#000000" font-family="sans-serif" font-size="14" lengthAdjust="spacing" textLength="45.9102"
                  x="160.8232" y="69.9951">Server
            </text>
        </g>
        <g class="participant participant-tail" data-participant="Server">
            <rect fill="#E2E2F0" height="30.2969" rx="2.5" ry="2.5" style="stroke:#181818;stroke-width:0.5;"
                  width="59.9102" x="153.8232" y="804.9531"/>
            <text fill="#000000" font-family="sans-serif" font-size="14" lengthAdjust="spacing" textLength="45.9102"
                  x="160.8232" y="824.9482">Server
            </text>
        </g>
        <g class="participant participant-head" data-participant="DataSource">
            <text fill="#000000" font-family="sans-serif" font-size="14" lengthAdjust="spacing" textLength="81.8193"
                  x="331.3818" y="77.9951">DataSource
            </text>
            <path d="M357.2915,29 C357.2915,19 375.2915,19 375.2915,19 C375.2915,19 393.2915,19 393.2915,29 L393.2915,55 C393.2915,65 375.2915,65 375.2915,65 C375.2915,65 357.2915,65 357.2915,55 L357.2915,29"
                  fill="#E2E2F0" style="stroke:#181818;stroke-width:1.5;"/>
            <path d="M357.2915,29 C357.2915,39 375.2915,39 375.2915,39 C375.2915,39 393.2915,39 393.2915,29" fill="none"
                  style="stroke:#181818;stroke-width:1.5;"/>
        </g>
        <g class="participant participant-tail" data-participant="DataSource">
            <text fill="#000000" font-family="sans-serif" font-size="14" lengthAdjust="spacing" textLength="81.8193"
                  x="331.3818" y="817.9482">DataSource
            </text>
            <path d="M357.2915,831.25 C357.2915,821.25 375.2915,821.25 375.2915,821.25 C375.2915,821.25 393.2915,821.25 393.2915,831.25 L393.2915,857.25 C393.2915,867.25 375.2915,867.25 375.2915,867.25 C375.2915,867.25 357.2915,867.25 357.2915,857.25 L357.2915,831.25"
                  fill="#E2E2F0" style="stroke:#181818;stroke-width:1.5;"/>
            <path d="M357.2915,831.25 C357.2915,841.25 375.2915,841.25 375.2915,841.25 C375.2915,841.25 393.2915,841.25 393.2915,831.25"
                  fill="none" style="stroke:#181818;stroke-width:1.5;"/>
        </g>
        <g>
            <title>Client</title>
            <rect fill="#FFFFFF" height="114.3984" style="stroke:#181818;stroke-width:1;" width="10" x="23.2651"
                  y="184.6953"/>
        </g>
        <g>
            <title>Client</title>
            <rect fill="#FFFFFF" height="72.2656" style="stroke:#181818;stroke-width:1;" width="10" x="23.2651"
                  y="535.0234"/>
        </g>
        <g>
            <title>Client</title>
            <rect fill="#FFFFFF" height="30" style="stroke:#181818;stroke-width:1;" width="10" x="23.2651"
                  y="757.9531"/>
        </g>
        <g>
            <title>Server</title>
            <rect fill="#FFFFFF" height="632.3906" style="stroke:#181818;stroke-width:1;" width="10" x="178.7783"
                  y="155.5625"/>
        </g>
        <g>
            <title>Server</title>
            <rect fill="#FFFFFF" height="343.3281" style="stroke:#181818;stroke-width:1;" width="10" x="183.7783"
                  y="299.0938"/>
        </g>
        <g>
            <title>DataSource</title>
            <rect fill="#FFFFFF" height="696.6563" style="stroke:#181818;stroke-width:1;" width="10" x="370.2915"
                  y="91.2969"/>
        </g>
        <rect fill="#EEEEEE" height="3" style="stroke:#EEEEEE;stroke-width:1;" width="424.2012" x="0" y="111.8633"/>
        <line style="stroke:#000000;stroke-width:1;" x1="0" x2="424.2012" y1="111.8633" y2="111.8633"/>
        <line style="stroke:#000000;stroke-width:1;" x1="0" x2="424.2012" y1="114.8633" y2="114.8633"/>
        <rect fill="#EEEEEE" height="23.1328" style="stroke:#000000;stroke-width:2;" width="93.0728" x="165.5642"
              y="101.2969"/>
        <text fill="#000000" font-family="sans-serif" font-size="13" font-weight="bold" lengthAdjust="spacing"
              textLength="74.5469" x="171.5642" y="117.3638">Live Mode
        </text>
        <g class="message" data-participant-1="DataSource" data-participant-2="Server">
            <polygon fill="#181818" points="199.7783,151.5625,189.7783,155.5625,199.7783,159.5625,195.7783,155.5625"
                     style="stroke:#181818;stroke-width:1;"/>
            <line style="stroke:#181818;stroke-width:1;" x1="193.7783" x2="369.2915" y1="155.5625" y2="155.5625"/>
            <text fill="#000000" font-family="sans-serif" font-size="13" lengthAdjust="spacing" textLength="57.5859"
                  x="205.7783" y="150.4966">LiveData
            </text>
        </g>
        <g class="message" data-participant-1="Server" data-participant-2="Client">
            <polygon fill="#181818" points="44.2651,180.6953,34.2651,184.6953,44.2651,188.6953,40.2651,184.6953"
                     style="stroke:#181818;stroke-width:1;"/>
            <line style="stroke:#181818;stroke-width:1;" x1="38.2651" x2="177.7783" y1="184.6953" y2="184.6953"/>
            <text fill="#000000" font-family="sans-serif" font-size="13" lengthAdjust="spacing" textLength="57.5859"
                  x="50.2651" y="179.6294">LiveData
            </text>
        </g>
        <g class="message" data-participant-1="Client" data-participant-2="Client">
            <line style="stroke:#181818;stroke-width:1;" x1="33.2651" x2="75.2651" y1="213.8281" y2="213.8281"/>
            <line style="stroke:#181818;stroke-width:1;" x1="75.2651" x2="75.2651" y1="213.8281" y2="226.8281"/>
            <line style="stroke:#181818;stroke-width:1;" x1="34.2651" x2="75.2651" y1="226.8281" y2="226.8281"/>
            <polygon fill="#181818" points="44.2651,222.8281,34.2651,226.8281,44.2651,230.8281,40.2651,226.8281"
                     style="stroke:#181818;stroke-width:1;"/>
            <text fill="#000000" font-family="sans-serif" font-size="13" lengthAdjust="spacing" textLength="88.0356"
                  x="40.2651" y="208.7622">:process data
            </text>
        </g>
        <rect fill="#EEEEEE" height="3" style="stroke:#EEEEEE;stroke-width:1;" width="424.2012" x="0" y="255.3945"/>
        <line style="stroke:#000000;stroke-width:1;" x1="0" x2="424.2012" y1="255.3945" y2="255.3945"/>
        <line style="stroke:#000000;stroke-width:1;" x1="0" x2="424.2012" y1="258.3945" y2="258.3945"/>
        <rect fill="#EEEEEE" height="23.1328" style="stroke:#000000;stroke-width:2;" width="133.0439" x="145.5786"
              y="244.8281"/>
        <text fill="#000000" font-family="sans-serif" font-size="13" font-weight="bold" lengthAdjust="spacing"
              textLength="114.5181" x="151.5786" y="260.895">Replay Request
        </text>
        <g class="message" data-participant-1="Client" data-participant-2="Server">
            <polygon fill="#181818" points="171.7783,295.0938,181.7783,299.0938,171.7783,303.0938,175.7783,299.0938"
                     style="stroke:#181818;stroke-width:1;"/>
            <line style="stroke:#181818;stroke-width:1;" x1="28.2651" x2="177.7783" y1="299.0938" y2="299.0938"/>
            <text fill="#000000" font-family="sans-serif" font-size="13" lengthAdjust="spacing" textLength="121.5132"
                  x="35.2651" y="294.0278">ReplayCommand()
            </text>
        </g>
        <g class="message" data-participant-1="Server" data-participant-2="Server">
            <line style="stroke:#181818;stroke-width:1;" x1="193.7783" x2="235.7783" y1="328.2266" y2="328.2266"/>
            <line style="stroke:#181818;stroke-width:1;" x1="235.7783" x2="235.7783" y1="328.2266" y2="341.2266"/>
            <line style="stroke:#181818;stroke-width:1;" x1="194.7783" x2="235.7783" y1="341.2266" y2="341.2266"/>
            <polygon fill="#181818" points="204.7783,337.2266,194.7783,341.2266,204.7783,345.2266,200.7783,341.2266"
                     style="stroke:#181818;stroke-width:1;"/>
            <text fill="#000000" font-family="sans-serif" font-size="13" lengthAdjust="spacing" textLength="147.5132"
                  x="200.7783" y="323.1606">switchToReplayMode()
            </text>
        </g>
        <path d="M89,354.2266 L89,394.2266 L278,394.2266 L278,364.2266 L268,354.2266 L89,354.2266" fill="#FEFFDD"
              style="stroke:#181818;stroke-width:0.5;"/>
        <path d="M268,354.2266 L268,364.2266 L278,364.2266 L268,354.2266" fill="#FEFFDD"
              style="stroke:#181818;stroke-width:0.5;"/>
        <text fill="#000000" font-family="sans-serif" font-size="13" lengthAdjust="spacing" textLength="129.2002" x="95"
              y="371.2935">Replay mode active
        </text>
        <text fill="#000000" font-family="sans-serif" font-size="13" lengthAdjust="spacing" textLength="168.3271" x="95"
              y="386.4263">Saving incoming live data
        </text>
        <rect fill="#EEEEEE" height="3" style="stroke:#EEEEEE;stroke-width:1;" width="424.2012" x="0" y="420.0586"/>
        <line style="stroke:#000000;stroke-width:1;" x1="0" x2="424.2012" y1="420.0586" y2="420.0586"/>
        <line style="stroke:#000000;stroke-width:1;" x1="0" x2="424.2012" y1="423.0586" y2="423.0586"/>
        <rect fill="#EEEEEE" height="23.1328" style="stroke:#000000;stroke-width:2;" width="112.8774" x="155.6619"
              y="409.4922"/>
        <text fill="#000000" font-family="sans-serif" font-size="13" font-weight="bold" lengthAdjust="spacing"
              textLength="94.3516" x="161.6619" y="425.5591">Replay Mode
        </text>
        <g class="message" data-participant-1="DataSource" data-participant-2="Server">
            <polygon fill="#181818" points="204.7783,459.7578,194.7783,463.7578,204.7783,467.7578,200.7783,463.7578"
                     style="stroke:#181818;stroke-width:1;"/>
            <line style="stroke:#181818;stroke-width:1;" x1="198.7783" x2="369.2915" y1="463.7578" y2="463.7578"/>
            <text fill="#000000" font-family="sans-serif" font-size="13" lengthAdjust="spacing" textLength="57.5859"
                  x="210.7783" y="458.6919">LiveData
            </text>
        </g>
        <g class="message" data-participant-1="Server" data-participant-2="Server">
            <line style="stroke:#181818;stroke-width:1;" x1="193.7783" x2="235.7783" y1="492.8906" y2="492.8906"/>
            <line style="stroke:#181818;stroke-width:1;" x1="235.7783" x2="235.7783" y1="492.8906" y2="505.8906"/>
            <line style="stroke:#181818;stroke-width:1;" x1="194.7783" x2="235.7783" y1="505.8906" y2="505.8906"/>
            <polygon fill="#181818" points="204.7783,501.8906,194.7783,505.8906,204.7783,509.8906,200.7783,505.8906"
                     style="stroke:#181818;stroke-width:1;"/>
            <text fill="#000000" font-family="sans-serif" font-size="13" lengthAdjust="spacing" textLength="93.6279"
                  x="200.7783" y="487.8247">Save LiveData
            </text>
        </g>
        <g class="message" data-participant-1="Server" data-participant-2="Client">
            <polygon fill="#181818" points="44.2651,531.0234,34.2651,535.0234,44.2651,539.0234,40.2651,535.0234"
                     style="stroke:#181818;stroke-width:1;"/>
            <line style="stroke:#181818;stroke-width:1;" x1="38.2651" x2="182.7783" y1="535.0234" y2="535.0234"/>
            <text fill="#000000" font-family="sans-serif" font-size="13" lengthAdjust="spacing" textLength="108.2783"
                  x="50.2651" y="529.9575">OldData (replay)
            </text>
        </g>
        <rect fill="#EEEEEE" height="3" style="stroke:#EEEEEE;stroke-width:1;" width="424.2012" x="0" y="563.5898"/>
        <line style="stroke:#000000;stroke-width:1;" x1="0" x2="424.2012" y1="563.5898" y2="563.5898"/>
        <line style="stroke:#000000;stroke-width:1;" x1="0" x2="424.2012" y1="566.5898" y2="566.5898"/>
        <rect fill="#EEEEEE" height="23.1328" style="stroke:#000000;stroke-width:2;" width="100.3281" x="161.9365"
              y="553.0234"/>
        <text fill="#000000" font-family="sans-serif" font-size="13" font-weight="bold" lengthAdjust="spacing"
              textLength="81.8022" x="167.9365" y="569.0903">End Replay
        </text>
        <g class="message" data-participant-1="Client" data-participant-2="Server">
            <polygon fill="#181818" points="171.7783,603.2891,181.7783,607.2891,171.7783,611.2891,175.7783,607.2891"
                     style="stroke:#181818;stroke-width:1;"/>
            <line style="stroke:#181818;stroke-width:1;" x1="28.2651" x2="177.7783" y1="607.2891" y2="607.2891"/>
            <text fill="#000000" font-family="sans-serif" font-size="13" lengthAdjust="spacing" textLength="84.2524"
                  x="35.2651" y="602.2231">StopReplay()
            </text>
        </g>
        <g class="message" data-participant-1="Server" data-participant-2="Server">
            <line style="stroke:#181818;stroke-width:1;" x1="193.7783" x2="235.7783" y1="641.4219" y2="641.4219"/>
            <line style="stroke:#181818;stroke-width:1;" x1="235.7783" x2="235.7783" y1="641.4219" y2="654.4219"/>
            <line style="stroke:#181818;stroke-width:1;" x1="188.7783" x2="235.7783" y1="654.4219" y2="654.4219"/>
            <polygon fill="#181818" points="198.7783,650.4219,188.7783,654.4219,198.7783,658.4219,194.7783,654.4219"
                     style="stroke:#181818;stroke-width:1;"/>
            <text fill="#000000" font-family="sans-serif" font-size="13" lengthAdjust="spacing" textLength="129.5049"
                  x="200.7783" y="636.356">switchToLiveMode()
            </text>
        </g>
        <path d="M86,662.4219 L86,702.4219 L280,702.4219 L280,672.4219 L270,662.4219 L86,662.4219" fill="#FEFFDD"
              style="stroke:#181818;stroke-width:0.5;"/>
        <path d="M270,662.4219 L270,672.4219 L280,672.4219 L270,662.4219" fill="#FEFFDD"
              style="stroke:#181818;stroke-width:0.5;"/>
        <text fill="#000000" font-family="sans-serif" font-size="13" lengthAdjust="spacing" textLength="130.4253" x="92"
              y="679.4888">Replay mode ended
        </text>
        <text fill="#000000" font-family="sans-serif" font-size="13" lengthAdjust="spacing" textLength="173.7036" x="92"
              y="694.6216">Forwarding live data again
        </text>
        <g class="message" data-participant-1="DataSource" data-participant-2="Server">
            <polygon fill="#181818" points="199.7783,724.8203,189.7783,728.8203,199.7783,732.8203,195.7783,728.8203"
                     style="stroke:#181818;stroke-width:1;"/>
            <line style="stroke:#181818;stroke-width:1;" x1="193.7783" x2="369.2915" y1="728.8203" y2="728.8203"/>
            <text fill="#000000" font-family="sans-serif" font-size="13" lengthAdjust="spacing" textLength="57.5859"
                  x="205.7783" y="723.7544">LiveData
            </text>
        </g>
        <g class="message" data-participant-1="Server" data-participant-2="Client">
            <polygon fill="#181818" points="44.2651,753.9531,34.2651,757.9531,44.2651,761.9531,40.2651,757.9531"
                     style="stroke:#181818;stroke-width:1;"/>
            <line style="stroke:#181818;stroke-width:1;" x1="38.2651" x2="177.7783" y1="757.9531" y2="757.9531"/>
            <text fill="#000000" font-family="sans-serif" font-size="13" lengthAdjust="spacing" textLength="57.5859"
                  x="50.2651" y="752.8872">LiveData
            </text>
        </g><!--SRC=[ZPAzJiCm481tFyMDxS0BL0fBWGc4H1Yx7FQfM4hkWkEcuktnnOcQa5JjP2ltzzqNeuqIO5zvucWQ3D5Rto17A2bq58p3Y5_O4ZobIocdOCcOee1Ntn6yYICe2eCs-WxZBEboXOV7eTkkBzF8fMIOamzDpInhgGEboUSqTzS4iTIseBYc1_oWfiBVTFoSg8rAEQaRSNBINkeQsMssnj7_OTSvnnxjsKVx_Icvbof9ZLXIYMZcV1JKggnlIWSkiVDy1CzMQhrKAZMlSDbWb7n3w18iTQUr-2ZjlN8QWKte1ssNefNYcTr8aY2M2iieJOwl-hlkIydkiaNio1tuHS8PWvjv0ZoYv-dOuJVTBUlcQrkkDFaoUUyBXZy0]-->
    </g>
</svg>